<?xml version="1.0" encoding="utf-8"?>
<!-- Generator: Adobe Illustrator 22.1.0, SVG Export Plug-In . SVG Version: 6.00 Build 0)  -->
<svg version="1.1" id="Layer_1" xmlns="http://www.w3.org/2000/svg" xmlns:xlink="http://www.w3.org/1999/xlink" x="0px" y="0px"
	 viewBox="0 0 707.1 200" style="enable-background:new 0 0 707.1 200;" xml:space="preserve">
<style type="text/css">
	.st0{clip-path:url(#SVGID_2_);}
	.st1{clip-path:url(#SVGID_6_);}
	.st2{fill:#DBDBDB;}
	.st3{fill-rule:evenodd;clip-rule:evenodd;fill:#DBDBDB;}
	.st4{clip-path:url(#SVGID_10_);}
	.st5{clip-path:url(#SVGID_14_);}
	.st6{clip-path:url(#SVGID_18_);}
</style>
<g id="Warstwa_1">
</g>
<g>
	<g>
		<g>
			<defs>
				<path id="SVGID_1_" d="M169.1,179.2l3.9-8.3l9.9-17.9c0,0,4-2.6,4.4-4.9c0.4-2.3,0.2-6.8,0.2-6.8l-1.5-0.8l0.4-1.4l0.6-0.8
					l-0.9-6.4l-2.2,0.1l-0.8-4.6l-1.6-6.8l4.3-4c0,0,4.2,4.4,6.9,4c2.8-0.4,4.5-1.4,5.1-3.1c0.7-1.7,0.7-2.5,0.7-2.5
					s2.5,2.2,3.3,3.8c0.8,1.6,1.6,7.3,1.6,9.1c0,1.8,2.6-11.9,2.6-11.9s-0.6-5.2-3.8-7.3c-3.3-2-5.2-2-5.2-2s3.9-1.7,6.1-5.1
					c2.2-3.4,3.7-6.6,3.7-6.6l-1.9-11.1c0,0,1.1,8.9-7.1,12.5c-8.1,3.6-12.6,6.9-13.4,10.7c-0.9,3.8-0.7,3.7-0.7,3.7l-3.7,3.2
					l-3.9-7.2c0,0,8.4-10.5,9.5-18.1c1.1-7.7-2.6-10.7-3.8-11.5c-1.2-0.7-1.5-4.8-2.5-5c-1-0.2-3.3,3.2-3.9,3c-0.6-0.2-2-3-3.5-2.8
					c-1.5,0.1-3.3,2-3.3,2s-0.7-2.7-3,0.2c-2.2,2.9-0.7-3-0.2-4.3c0.4-1.3,2.8-7.7,4-7.9c1.1-0.2,5.4,1.8,7.5,0.4
					c2.2-1.4,4.1-2.8,4.8-4.8c0.7-2.1,0.1-2.8,2.8-3.1c2.7-0.3,5.9,0.2,6.2,2.2c0.3,2-0.2,2.9-0.2,2.9s-1-2.5-3.4-1.6
					c-2.5,0.8,0,5.2,0,5.2s4.1,0.7,5.3-1.8c1.3-2.5,0.6-6.8,0.6-6.8s-2.2-4.3-5.8-5.1c-3.6-0.9-5.4,0-5.4,0s-3.7-2.3-7.6,0.3
					c-3.9,2.6-3.5,6.3-3.5,6.3s-5.5,3.6-7.9,10c-2.4,6.4-3.1,11.4-3.2,14.7c-0.2,3.3-0.2,4.9-0.2,4.9s-4.5-4.1-5.9-11
					c-1.4-6.9,0.3-10.9,3.7-10.7c3.4,0.2,2.9,2,2.9,2s5.1-3.4-1.1-7.6l-2.6-0.9l3.8-3.9c0,0,0.3-2.7-3.2-3.1
					c-3.5-0.4-5.5,0.6-4.4,3.9c1.1,3.3,0.2,3,0.2,3s-3.2-2.2-6,0.6c-2.8,2.8-1,4.9-0.3,4.2c0.7-0.7,3.5-0.5,3.8,2.3
					c0.3,2.8-1.2,8.7,1.3,14c2.4,5.3,5.8,9,5.8,9l-7.7-1.5l-7.6-10.5l-1.5-3.9c0,0-1.9,3.9-1.2,7.4c0.7,3.5,3.2,6.9,3.2,6.9
					s-13,7.7-14.5,11.6c-1.5,3.9-2,6.1-1,7.3c1,1.3,1.7,2.9,1.7,2.9s-3.5,5.1-1.9,9.4c1.6,4.3,8.2,2.3,11.6,5.5c0,0,4.3-2.6,1.3-9.8
					c-3-7.3-3.8-8.9-4-10.9c-0.2-1.9-2.8,2.4-3.5,4.3c-0.7,1.9-1.7-0.6-0.4-5.5c1.4-4.9,8.9-7.2,8.5-7.6c-0.4-0.4-0.7,9.2,2,9.6
					c2.7,0.4,8.9-8.9,9.5-10.6c0.6-1.7,14.9,6.1,15.9,8.9c1,2.8-0.6,6.8,0.1,11.1c0.7,4.3,2.5,6.8,3.3,7.1c0.8,0.2,2.5-7.4,1.9-7.7
					c-0.7-0.3,0.6-0.3,1.9,3.1c1.3,3.4,1.2,4.3,1.2,4.3l-2,5.7c0,0-5.1-3.1-5.8-2.4c-0.7,0.7,1,1,1.7,10.1
					c0.7,9.1,2.7,16.9,4.2,18.3c1.4,1.4,1.3,3-2.8,10.1c-4,7.2-7.7,10.4-7.7,10.4s-5.6-2.1-8.6,0.5c-3,2.6-3.9,3.4-4.4,5.2
					c-0.5,1.8-1.7,6.5-1.7,6.5l-16.5,4.3c0,0-0.2-1.6,0-4.1c0.1-2.6-1-2.2-2.9-0.5c-2,1.7-2.6,2.7-7.2,5.2c-0.7,0.4-1.1,0.6-5.1,1.2
					c-2.5-0.1,3.4-5.2,4.1-8.1c0.7-3-12.4,3.1-22.5,4.1c-10.1,1.1-18.5-3-18.5-3s-0.7,3.1,0.3,4.3c0.9,1.1,6.3,2.4,27.8,7
					c2.3,1.6,8,3.1,22.2,0C153.9,189,169.1,179.2,169.1,179.2L169.1,179.2z M37.9,142.5c0,0,1-1.7,1.6-2.2c0.6-0.6,0.9-0.5,0.9-0.5
					s-0.1,4.6,0.4,5.9c0.5,1.1,0.4,1.7,1,0.7l0.1-1.2c0.3-3.4,5.1-4.5,5.1-4.5s-1,2.6-1.8,6.6c-0.8,4.1,1.3,8.2,1.3,8.2l-5.7-2
					l0.4-2.3c-1.2,0-2.4-0.2-2.4-0.8C38.9,149.4,37.9,142.5,37.9,142.5L37.9,142.5z M184.5,143.4l-1.7,6.7c0,0,1.5-0.2,2-1.3
					c0.5-1.1,1.4-3.5,0.9-4.4C185.4,143.7,184.5,143.4,184.5,143.4L184.5,143.4z M189.3,113.6c0.2,1.9,1.7,4,3.7,4
					c2,0.1,2.9-3.6,2.9-3.6s-3-0.9-4.6-0.7C189.7,113.4,189.3,113.6,189.3,113.6L189.3,113.6z M159.3,175.9c0,0-3.3-0.5-5,1.3
					c-1.7,1.7-1.5,4.8-1.5,4.8s2.5-1.4,4.1-2.6C158.6,178.1,159.3,175.9,159.3,175.9L159.3,175.9z M178.5,126.8c0,0,2.2,2.6,1.7,7.6
					c-0.5,4.9-1.8,11.6-1.8,11.6s-3.1-2.5-1.9-11.2C177.7,126.1,178.5,126.8,178.5,126.8L178.5,126.8z M173.8,98.7
					c0,0,6.7-6.6,6.5-11c-0.2-4.4-1.3-8.9-6.2-8.7c-4.9,0.3-7,5.6-5.5,10.6C169.9,94.6,173.8,98.7,173.8,98.7L173.8,98.7z
					 M147.8,91.4c0,0,0.9,2.4-0.5,4c-1.4,1.6-3.1,2-3.1,2s-0.4-2.4,0.9-4.1C146.4,91.5,147.8,91.4,147.8,91.4L147.8,91.4z"/>
			</defs>
			<use xlink:href="#SVGID_1_"  style="overflow:visible;fill-rule:evenodd;clip-rule:evenodd;fill:#DBDBDB;"/>
			<clipPath id="SVGID_2_">
				<use xlink:href="#SVGID_1_"  style="overflow:visible;"/>
			</clipPath>
			<g class="st0">
				<defs>
					<rect id="SVGID_3_" x="37.9" y="47.8" width="169.2" height="149.4"/>
				</defs>
				<use xlink:href="#SVGID_3_"  style="overflow:visible;fill:#DBDBDB;"/>
				<clipPath id="SVGID_4_">
					<use xlink:href="#SVGID_3_"  style="overflow:visible;"/>
				</clipPath>
				<g style="clip-path:url(#SVGID_4_);">
					
						<image style="overflow:visible;" width="1956" height="1724" xlink:href="1A901C22.jpg"  transform="matrix(8.684991e-02 0 0 -8.684991e-02 37.765 197.3623)">
					</image>
				</g>
			</g>
		</g>
		<g>
			<defs>
				<path id="SVGID_5_" d="M118.3,8.5c13.8,0,26.9,3,38.7,8.3l-3.6,4.5c-10.8-4.6-22.7-7.2-35.2-7.2c-18.5,0-35.6,5.6-49.8,15.3
					c0.9-3.8,3.6-7,3.6-7l-1.8-0.7C84.3,13.3,100.8,8.5,118.3,8.5L118.3,8.5z M176.9,28.9c21.8,17.3,35.8,44,35.8,74
					c0,52.2-42.3,94.4-94.4,94.4c-19.4,0-37.3-5.8-52.3-15.8c0.7,0.2,1.8,0.8,3.5,1.9c2.8,1.9,8.6,5.2,8.8,4c0.1-0.6,1-2.4,1.7-4.3
					c11.6,5.6,24.6,8.6,38.3,8.6c49.1,0,88.9-39.8,88.9-88.9c0-28.2-13.2-53.3-33.7-69.6L176.9,28.9L176.9,28.9z M64.2,180.3
					c-24.4-17.1-40.3-45.4-40.3-77.4c0-0.2,0-0.5,0-0.7c1.3,0.1,3,0.1,5.5,0.2c0,0.2,0,0.4,0,0.6c0,21,7.3,40.3,19.4,55.5
					c-1.3,0.7-2.9,1.9-2.6,3.2c0.5,2.2,5.2,8.8,6.3,8.1c0.8-0.5,2.4-2.1,3.9-2.9c3.1,3,6.3,5.7,9.8,8.2c-0.7,0.4-1.5,0.9-1.6,1.4
					C64.4,177.1,64.1,179.1,64.2,180.3L64.2,180.3z"/>
			</defs>
			<use xlink:href="#SVGID_5_"  style="overflow:visible;fill-rule:evenodd;clip-rule:evenodd;fill:#DBDBDB;"/>
			<clipPath id="SVGID_6_">
				<use xlink:href="#SVGID_5_"  style="overflow:visible;"/>
			</clipPath>
			<g class="st1">
				<defs>
					<rect id="SVGID_7_" x="23.9" y="8.5" width="188.8" height="188.9"/>
				</defs>
				<use xlink:href="#SVGID_7_"  style="overflow:visible;fill:#DBDBDB;"/>
				<clipPath id="SVGID_8_">
					<use xlink:href="#SVGID_7_"  style="overflow:visible;"/>
				</clipPath>
				<g style="clip-path:url(#SVGID_8_);">
					
						<image style="overflow:visible;" width="2180" height="2177" xlink:href="1A901C24.jpg"  transform="matrix(8.684991e-02 0 0 -8.684991e-02 23.7266 197.4327)">
					</image>
				</g>
			</g>
		</g>
		<path class="st2" d="M118.3,8c13.9,0,27.1,3,39,8.4l-0.7,0.8C145,11.9,132,9,118.3,9C101,9,84.8,13.7,70.9,21.8l-1.2-0.4
			C83.8,12.9,100.5,8,118.3,8L118.3,8z M177.2,28.4c2.9,2.3,5.6,4.7,8.2,7.3c17.2,17.2,27.8,40.9,27.8,67.2
			c0,26.2-10.6,50-27.8,67.1c-17.2,17.2-40.9,27.8-67.1,27.8c-19.9,0-38.3-6.1-53.5-16.5c1,0.1,1.9,0.2,4.7,2.1
			c2.4,1.6,7,4.3,8.4,4.3c12.2,5.8,25.9,9.1,40.4,9.1c25.9,0,49.4-10.5,66.4-27.5c17-17,27.5-40.5,27.5-66.4
			c0-25.9-10.5-49.4-27.5-66.4c-2.6-2.6-5.3-5-8.1-7.2L177.2,28.4L177.2,28.4z M64.4,181.1c-4.8-3.3-9.2-7-13.3-11
			c-17.2-17.2-27.8-40.9-27.8-67.1c0-0.2,0-0.5,0-0.7c0.3,0,0.7,0,1,0c0,0.2,0,0.5,0,0.7c0,24.1,9.1,46.1,24,62.7
			c1.4,2,3,3.9,3.8,4.1c3.7,3.7,7.7,7,12,10C64.2,180.3,64.3,180.8,64.4,181.1L64.4,181.1z"/>
		<path class="st2" d="M118.3,13.6c6.2,0,12.2,0.6,18.1,1.8c6,1.2,11.8,3.1,17.3,5.5l0.1,0.1l-0.1,0.1l-0.3,0.4l-0.1,0.1l-0.1-0.1
			c-5.4-2.3-11.1-4.1-17.1-5.4c-5.8-1.2-11.8-1.8-17.9-1.8c-9.1,0-17.9,1.4-26.1,3.9c-8.5,2.6-16.5,6.5-23.7,11.5l-0.3,0.2l0.1-0.3
			c0-0.1,0-0.3,0.1-0.4c0-0.1,0.1-0.2,0.1-0.4l0,0l0,0c7.2-4.9,15.2-8.7,23.8-11.3C100.5,15,109.2,13.6,118.3,13.6L118.3,13.6z
			 M173.8,32.9c1.3,1.1,2.7,2.2,3.9,3.3c1.3,1.1,2.5,2.3,3.7,3.5c8.2,8.2,14.9,18,19.4,29c4.3,10.5,6.8,22,6.8,34.1
			c0,12.1-2.4,23.6-6.8,34.1c-4.5,10.9-11.2,20.8-19.4,29c-8.2,8.2-18,14.9-29,19.4c-10.5,4.4-22.1,6.8-34.1,6.8
			c-6.8,0-13.4-0.8-19.8-2.2c-6.5-1.5-12.8-3.7-18.7-6.5l-0.1-0.1l0-0.1c0-0.1,0.1-0.2,0.1-0.2c0-0.1,0.1-0.2,0.1-0.3l0-0.1l0.1,0.1
			c5.9,2.8,12.1,5,18.6,6.4c6.3,1.4,12.8,2.2,19.6,2.2c12,0,23.4-2.4,33.8-6.7c10.8-4.5,20.6-11.1,28.7-19.2
			c16-16,25.9-38.1,25.9-62.6c0-12-2.4-23.4-6.7-33.8c-4.5-10.8-11.1-20.6-19.2-28.7c-1.2-1.2-2.4-2.3-3.7-3.5
			c-1.3-1.1-2.6-2.2-3.9-3.3l-0.1-0.1l0.1-0.1l0.3-0.4l0.1-0.1L173.8,32.9L173.8,32.9z M65.9,175.2c-1.7-1.3-3.4-2.6-5-3.9
			c-1.6-1.4-3.2-2.8-4.8-4.3l-0.1-0.1l0.1-0.1c0.1-0.1,0.2-0.1,0.2-0.1c0.1-0.1,0.2-0.1,0.2-0.1l0.1,0l0.1,0.1
			c1.5,1.5,3.1,2.9,4.7,4.3c1.6,1.4,3.3,2.7,5,3.9l0.2,0.1l-0.2,0.1c-0.1,0.1-0.2,0.1-0.3,0.1c-0.1,0-0.2,0.1-0.2,0.1L65.9,175.2
			L65.9,175.2L65.9,175.2z M48.5,158.6c-6.2-7.8-11.1-16.6-14.5-26.2c-3.2-9.2-5-19.2-5-29.5c0-0.1,0-0.2,0-0.4v-0.2v-0.1l0.1,0h0.2
			h0.3h0.1v0.1v0.2l0,0c0,0.1,0,0.2,0,0.4c0,10.3,1.8,20.1,4.9,29.3c3.4,9.5,8.3,18.3,14.4,26l0.1,0.1l-0.1,0.1
			c-0.1,0.1-0.1,0.1-0.2,0.1c-0.1,0-0.1,0.1-0.2,0.1L48.5,158.6L48.5,158.6L48.5,158.6z"/>
		<path class="st3" d="M47.4,156.4c-2.3-3.3-1.7-8.8-0.8-12.5c0.6-2.6,2-4.8,0.5-4.5c-2.2,0.4-5.8,2.7-5.9,5.9c0,0.7-1-3.1-0.3-5.7
			c0.4-1.5-2.9,0.9-2.6,1.9l0.3,0.5c0.1-0.4,0.8-1.6,1.4-1.8c-0.1,0.7-0.5,2.8,0.6,5.4l1.7,3.1c0.1-1.1-1.3-5.7,4.3-7.8
			c-1.9,2.6-2.8,10.2-0.6,13.5L47.4,156.4L47.4,156.4z M87.7,185.6c2.4,0.5,5.1,0.9,9.3,0.9c8-0.4,13.4-1.5,21.6-4.5
			c4.3-1.6,2.3,1.4,0.3,4l-0.1,0.5c1.5-1,2.7-2.7,3-4.5c0.8-3.9-9.9,0.8-12.7,1.5c-2.9,0.7-10.6,2-13.5,2l-10.1-0.7L87.7,185.6
			L87.7,185.6z M183.5,136.9c0.2,2.2,0.9,6.5,0.4,8.7l0,0c-0.5,2.1-1.1,4.3-1.1,4.3c-0.7,0.1-1.5-0.1-2.4-1c-2.3-2.1-1.4-1.8-1.1-3
			c0.9-3.2,2.7-15.9,0.6-19c-0.7-1.1-0.6-1.3-0.1-2.4c0.2-0.4,1.1-1.8,1.4-2.2c1,1.2,1.9,7.7,2,9.6l0.3-0.1c0.5-1.4,0.3-3.9-0.1-5.3
			c-0.4-1.6-0.6-4.1-0.8-5.8c5.7-6.5,2.8,1.2,10.5,0.8c1.2-0.1,3.1-0.8,3.9-1.6c1.2-1.2,1.7-2.6,2.1-3.7c6.6,6.5,3.2,14.3,0.5,21.5
			c-0.1,0.1-0.1,1-0.3,1.2l0.2-0.4c1.5-2.3,3.7-9.1,5.1-14.4c0,0,0,0,0,0.1c-1-4.7-3.2-8.5-7.3-10.2c-1.6-0.7-5.2-1.5-6.8-1.3
			c-1.4,0.2,6-5.1,6.4-5.2c1.6,0.1,2.7,0.1,4.6,1.4c4.7,3.2,3.8,6.2,4.6,7.9c0,0.1,0,0.2,0,0.4c0.1-1.3,0.3-2.8,0.4-4.3
			c-0.1,0.9-0.2,1.7-0.4,2.3c0.2-4.5-4.4-8-7.9-8.3c4.6-1.8,8.7-10.2,8.9-10.3c0,0.7,0,2.2,0,4.2l0,0c0-1.7,0.3-4.9-0.7-11.9l0,0
			c0.4,3.6,0.3,6.8-0.8,8.8c-1.2,2.3-4,5.9-6.4,7.5c-2.1,1.4-9.1,5.6-10.3,8.1c-0.3,0.6-0.2,1.4,0.1,2c0.6,1.4,2.1,2.8,3.6,2.8
			c2.6,0.1,3.3-1.2,3.7-3.6c0.7,0.1,1.4,0.3,1.9,0.8c-0.1,0.7-0.1,1.2-0.2,1.7c-0.7,2.5-3.1,3.1-5.4,3.1c-1.4-0.1-2.3-0.6-3.5-1.2
			c-0.6-0.3-1.1-0.8-1.4-1.2c0-0.1-0.1-0.2-0.4-0.5l0,0c-0.2-0.3-0.4-0.5-0.5-0.7c-1-1.6-1.7-4.3-1.6-6.9
			c1.6-11.8,21.3-9.1,20.2-24.5l-0.6-2.6c0,0,1.1,8.5-4.1,11.9c-5.2,3.3-7.9,4.2-9.2,5.1l0,0c-4.1,2.5-7.3,5.3-8.3,11.3
			c-0.1,0.5-0.8,1.1-2.9,2.1c-0.9-0.5-2.3-3.7-2.9-4.8c-0.3-0.7-0.1-0.5,0.4-1.7c0.7-1.6,4.3-6.4,5-7.6c3.5-6.1,3.6-9.5,3.9-11.7
			c0.4-3-1.7-8.5-3.9-9.5c-2-0.9-0.6-4.6-3.2-5.3c-1.8-0.5-3.6,2.8-3.9,2.7c-0.7-0.2-0.6-2-2.6-2.4c-1.6-0.3-2.7,0.9-3.6,0.8
			c-2.4-0.3-1.8-0.5-3.5,1.1c0.5-2.1,2.3-8.2,3.3-9.5c1.3-1.6,1.4-1.2,2.9-0.8c6.1,1.4,9.3-1.5,11.1-7.1c0.8-0.9,4.4-1.9,6.3-0.6
			c0.9,0.6,1.2,1.9,1.3,3.1c-1.8-1.1-3.2-1.5-4.3-0.4c-1.5,1.5-0.2,4.8,0.5,5.6c12.4,1.8,7.2-16.7-3.7-15.1
			c-0.8,0.3-1.1,0.2-1.8-0.2c-1.1-0.7-6.3-0.9-9.3,2.2c-2.2,2.3-1.8,3.5-2.1,5.3c-0.2,0.9-0.6,0.8-1.2,1.3
			c-5.9,4.6-8.5,12.1-9.6,19.3c-0.4,2.6-0.4,4.5-0.4,6.9c0,1.4-0.1,1.3-1.1,0c-4.6-5.8-3.7-13.6-3.5-16.2c0.2-2.4,3.4-3.5,4.1-2.3
			c0.7,1,0.4,1.7,1.1,1.8c2.1,0.4,5.8-7.2-1.4-9c0-1.3,1.8-1.2,2.3-3.7c1-4.6-5.9-5.8-8-2.8c0,0.1-0.6,1-0.6,2.2
			c0,1.3,0.4,3,0.5,3.1c-0.9-0.5-1-0.7-2.6-0.7c-2-0.1-4.9,2.2-4.7,6.9c0.6-0.5,4.2-0.8,4.5,1.3c0.7,4.5-1.4,15.5,7.2,22.8
			c-2-0.2-6.8-1.6-6.8-1.5c-3.4-4.5-8-10.6-8.7-15c-0.7-0.8-0.5-0.7-1.1,0.1c-0.6,1.4-1.7,3.7-2.1,5c-1.3,4.4,1.8,7.4,2.7,10.3
			c-6.3,3.1-12.4,6.9-14.5,12.1c-2.2,6.6,1.3,9,1.3,10c0,0.4-3.1,6.1-0.4,10.6c2.5,4.3,7.6,1.7,11.1,5.2c1.2,1.2,1.8-1.7,1.9-1.9
			c1.4-2.9,1.8-6.5,0.3-9.5c-0.4-0.8-0.9-1.8-1.4-2.6c-0.3-0.5-1.8-2.5-2-3.8c-0.2-1.3,0.1-2.2-0.5-3.5c-0.3-0.8,0-0.7-0.1-1.5
			c-0.3-0.1-2.2,0.7-3.2,1.7c-0.6,0.6-0.6,1.3-1.1,1.9c-1.5-3.4,4.3-7.3,7.8-9.8c-1.4,3-0.7,8.3,2.9,9.7c1.6-1.1,8.6-3.1,9.6-11.4
			c1.8,0.1,9.4,3.9,11.1,5.3c4.6,4,4.4,4.6,4,7.4c-0.3,2-0.2,5.2-0.1,7.2c0.2,3,1.3,7,4.6,7l0.8-3.1c0.1-0.6,0.6-4.1,0.8-4.4
			c0.8,0.9,1.5,3.6,2,5.4c0.6,2.1-1,3.9-1.5,5.7c-1.2-0.2-3.5-1.9-6.3-1.8c-0.5,0.8-0.8,0.5-0.3,1.4c2.8,5.2-0.2,15.2,4.2,24.2
			c1,1.9,3.4,5.1,2.4,7.3c-3.2,6.8-4.8,8.4-9.3,14.3c-0.4,0.5-0.7,0.9-1,1c-0.6,0.4-7.6-1.8-11.4,3.2c-2,2.6-2.4,4.2-2.9,7.4
			c-0.1,1-0.3,1.7-0.3,2.1c-1.6,0.8-12.9,3.9-15.8,4.2c-0.2-1.8,0.4-4.6,0-5.4c-1.1-1.4-2.6-0.9-3.5,0.3c-2.7,2.8-7.1,6.2-10.9,7.1
			c-1,0.2-1.4,0.3-2.4,0.8c3.4-0.8,6.1,1.1,13.6-6.6c0.9-1.3,2.4-2.1,2,0c-0.6,3.4-0.3,4.1-0.2,5c3.3-0.1,14.9-3.4,15.9-3.8
			c0.6-0.3,1.2-0.6,1.9-0.9c0.1-0.3,0.1-0.7,0.2-1.1l0,0c0.4-2.1,1-5.7,2.7-7.5h0c3.9-5.2,10.5-5.4,14.5-0.2c0.3,0.4,0.4,0-0.2-1
			c-0.7-1.1-2.3-2.6-2.2-2.7c3.7-3.7,9.4-12.9,11.3-18.2c1,0.3,4.3,1,4.5,1.3c1.7-0.4-9.5,17.5-11.7,21.3c0.9-0.6,2.5-1.8,3.6-2.7
			c2.3-2.8,9.3-18.1,9.9-18.5c4.7-1.5,7.1-8.5,5.3-11.7l0.4-0.3c0.3-2.1-0.9-2.1-1.1-2.5c0.9-1.1-0.2-2.5-0.3-4.2
			c-0.2-2,0.5-4.3-1.4-4.4c-0.5,0-1.2,0.1-1.7,0.2C183.2,131.9,183.2,135.3,183.5,136.9L183.5,136.9z M184.4,139.3
			c-0.1-1-0.2-1.9-0.2-2.1h0v0l0,0l0,0l0,0c-0.2-1.6-0.6-4.2,0.7-4.7c1.6-0.7,1,1.5,1.1,3.6c0,1.5,1.2,2.7,0.2,3.7
			c-0.7,0.2-1.1,0.1-0.1,0.8c2.7,1.8,0.3,8.5-1.4,10.3c-1.7,1.9-4.2,1.4-5.4,1.2c-9.8-1.9-6-22.2-9.6-29.1c2.6,0.7,3.2,2.1,4.9,2.8
			c0.5-1.1,0.2-0.6,0.9-2.3c1.1-2.8,1.2-3.8,3.5-6.2c0.7-0.7,3.9-3.8,5.2-5.5c0.1,0.9,1.2,4.4,1,4.5c-0.9,0.7-2.1,1.9-2.8,2.6
			c-4.7,4-5.5,8.7-6.4,14.9c-0.4,2.6-0.2,8.3,0.5,10.9c1.7,6.2,6.5,6.5,8,4.8l0,0c0.6-0.6,1.2-1.9,1.4-4.5c0-0.8-0.1-1.2-0.4-1.5
			C184.7,142.6,184.7,142.8,184.4,139.3L184.4,139.3z M184.1,149.2c0.4-0.4,0.9-0.8,1.2-3.3c0.2-2.1-0.4-2.4-0.6-1.9
			c-0.4,1-1.4,5.3-1.5,5.6C183.5,149.6,183.9,149.4,184.1,149.2L184.1,149.2z M176.2,106c-1.6,2.4-2.9,3.9-3.8,6.6
			c-0.6,1.8-1,3.8-1.3,5.6c-1.1-0.7-1.8-3.4-2-4.7c-0.2-0.9-0.1-3.8,0-4.7c0.7-5,8.6-12.8,10.7-16.9c3.3-6.7,1.6-14.1-6.6-13.6
			c-2.1,0.1-4.7,3-5.4,4.8c-1.2,3.4-1,7.5,0.7,10.8c0.9,1.7,1.9,2.5,3,3.9c1.7,2.2,1.8,1,0.4,3.4c-0.3,0.5-1.8,2.8-1.9,3
			c-0.4-4-2.8-6-7.2-8.7c-5-3.1-5.5-3-10.2-4.8c-1-2.9-2.4-3.8-1.5-3.6c1.1,0.3,3.3,0.7,5.2,0.9c2.8,0.4,2.3,0.1,0.9-1.5
			c-8.2-8.5-5.8-16.7-5.9-21.4c0-2-1.5-4.3-5.1-3.4c-0.7-0.6,0.7-3.6,2.8-4.3c1.4-0.4,3.3,0.3,4.2,1.2c0.6,0.6,0.2,2.4,0.5,2.5
			c0.5,0.2,0.9-1.1,1.9-1.7c0.9-0.6,2.4-0.5,2.8-0.3c4.9,0.9,3.3,7,2,6.1c-2.2-3.5-5.1-1.1-6.4,0.5c-1.5,1.9-3.2,9.1,1.3,16.6
			c0.7,1.4,1.7,2.6,2.6,3.5c3.1,2.8,2.7,2.2,2.7-1.5c0-2.9,0.4-8.1,1-11.5c0.9-5.2,4.9-11.8,9.1-14.9c0.5-0.5,1.3-0.8,1.6-0.8
			c0.3,6,6.5,4.7,7.7-0.8c0.2-1,0.6-1.9,0.7-2.8c0.4-2,1.5-3,3.4-3.5c1.4-0.3,4.1,0.7,5.3,1.4c6.1,3.5,4.5,13-1.5,12
			c-0.6-0.4-1.5-2.8-1-3.8c1.2-2.3,4.2-0.1,3.5,1.4c0.9,0.1,1.2-0.9,1.3-1.7c0-1.4-0.6-3.3-1.8-4.1c-2.4-1.4-6.4-0.8-8,0.7
			c0,4.9-7.7,8.4-10.3,5.5c0.3-0.5,0.3-0.2,0.2-0.7c-6.1-0.8-9.5,17.7-7.7,20.4c1.1-0.6,1.1-5,2.7-6.8c1.6-1.7,1.4,1.7,1.6,2.4
			c0.6-0.2,0.6-0.8,0.8-1.3c0.9-2.1,3-3.3,4.2-2c0.8,0.9,1.6,2.6,2.3,2.2c1-0.4,2-3,3.6-3c1,0,0.1,3.9,2,4.9
			c5.2,2.6,4.3,11,3.1,14.6C182.9,97.5,179,101.5,176.2,106L176.2,106z M173.9,111.2c0.4-0.9,1.3-2.1,1.9-3c0.6,1.9,4,5.7,3.2,7.2
			c-3.5,5-1.6,3.6-3.6-1.2C175.1,113.4,174.7,112,173.9,111.2L173.9,111.2z M163.2,83.4c-0.2,2.5-1.4,3.4,0.3,5.6
			c1.7,2.2,1.1,1.2,1-2.5C164.4,82.8,163.2,83.4,163.2,83.4L163.2,83.4z M153.6,54.1c-2.7-1.5,1.3-3.7,3.6-3.2
			c2.1,0.5,4.6,3.7,0.4,4.2c-2.5,0.3-2,4.3-3,4.1C154.1,59.1,156.2,55.5,153.6,54.1L153.6,54.1z M152.6,179.9
			c-0.1,0.8-0.2,1.4-0.3,1.9l0,0c-0.1,0.4-0.1,0.8-0.2,1.1l0,0l0,0l0,0c0.3-0.2,0.6-0.3,0.9-0.5c1.2-0.7,5.3-3.1,6.7-5.2
			c0.9-1.3,2,1.8,2,1.5c-0.1-2.3-1.6-3.2-1.8-3.4C156.8,174.3,153.1,176.2,152.6,179.9L152.6,179.9z M153,181.3
			c0.3-1.9,0.6-3.3,2.3-4.2c1.5-0.8,2.6-1.1,3.3-0.8c0.1,1.4-1.7,2.2-2.7,3.1L153,181.3L153,181.3z M205.7,119.8l0.1-0.3
			C205.7,119.6,205.7,119.7,205.7,119.8L205.7,119.8L205.7,119.8z M191.2,113.8c0.9-0.1,1.7,0.1,2.9,0.2l0,0c1.1,0.1,1.6,0.3,1.4,1
			c-0.1,0.3-0.2,0.5-0.5,1.2C193.5,119.3,187.2,114.6,191.2,113.8L191.2,113.8z M139,121.6c-1.1-2-3.6-3.4-2.4-5.5
			c0.4-0.6-3.6-3.4-4.1-4.6c-0.5-1.4-0.5-3,0.8-3.2c0.1-0.7,0.1-2.3,0.4-3.3c0.3-0.8,1-2.3,1.8-2.5c0.5,0.8,0.9,3.8,1.2,5
			C137.9,111.2,143.9,116.4,139,121.6L139,121.6z M176.6,49.9c1.2-0.4,3.8-0.2,4.8,0.5c-0.3,0.8-1,1.4-1.5,3.3
			c-0.3,0.6-0.7,1.9-0.8,3.5c-0.2,2.2-2.5,3.1-3.7,2.9c-2-0.5-2.9-3.9-0.6-7.2c1-1.4,2.3-2,2-2c-2.3,0-4,4.2-4.2,4.8
			c-0.7,0.1,0.3,0-0.4,0C172.2,51.9,174.2,50.7,176.6,49.9L176.6,49.9z M141,74.1c0.5,0.3,0.9,3.6,2.8,5.5c2,2,4.4,4.9,5.2,6
			c1.3,1.8,3.2,5.1,2.4,7.1c-1.6,4.1-4.5,7.8-9.2,8.7c-0.3-0.8-2.4-3.4,0.1-8.1c0.4-0.7,0.6-1.4,1.3-2c0.9-0.8,1-0.9,2.1-1.4
			c0,0,0-0.5-1-0.2c-0.6,0.2-2,1.6-2.5,2c-9.1,7-11.7,7.8-10.6,16.8c0.2,1.9-0.3,2.4,0,3.4c1.4,4.1,4.2,2.4,3.8,7
			c-3.1-0.5-7.5,0.3-7.7-4c-0.1-1.7-0.2-2.1,0.7-3.8c0.6-1.2,1.5-1,2.7-2.5c0-0.9-0.2-1.5-1-1.9c-6.4-3.4-0.4-14.7,13.7-19.6
			c1.3-0.2,3.1,2.4,3.1,3.6c-3.2,1.8-5.1,11.9-0.1,6.4c5.8-6.4-1.2-8.9-4.5-12.7c-1.8-2.1-2.6-4.1-2.2-6.8
			C140.2,76.7,140.3,74.4,141,74.1L141,74.1z M144.6,96.7c0.1-0.8,0.3-1.9,0.8-2.6c0.4-0.5,0.6-1.2,1-1.9
			C148.7,90.6,146.6,96.1,144.6,96.7L144.6,96.7z M174.2,79.6c3.9,0,6.3,5.7,4.6,10.5c-0.9,2.5-3,5.5-4.8,7.4c-1-1.3-1.7-1.6-3-3.3
			C167.4,89.2,168.7,79.6,174.2,79.6L174.2,79.6z M178.3,144.8c-2.2-2.2-1.2-14.4,0.4-16.9C180.5,131.3,178.3,144.5,178.3,144.8
			L178.3,144.8z M166.7,82.7c1.3-3.8,5.3-5.7,8.3-5.3c3.1,0.3,8.3,3,7.8,9.5c-0.6,6.6-7.8,13.4-10.3,17.8c-2.6,4.4-2.8,8.7-2.1,10.5
			c0.8,1.8-0.6-4.1,1.9-8.4c1.9-3.3,7-8.9,9.6-13.7c3.7-6.9,2.1-15.7-7-16.6c-1.9-0.2-3.7,0.2-5.3,1.4c-1.8,1.4-2.6,3.3-2.9,4.2
			C166.6,82.8,166.7,82.7,166.7,82.7L166.7,82.7z M188.1,116.5c-2.7-4.1-2-8.3,2.9-12.3c4.9-4,12.7-6.7,13.9-11.8
			c0.6-2.7,0.8-1.2,0.4,0.5c-0.4,1.5-0.9,3.4-2.8,5c-4.7,4.2-14.5,6.8-15.2,13.9c-0.3,2.6,0.8,4,1.5,5.2
			C189.9,118.4,188.1,116.5,188.1,116.5L188.1,116.5z"/>
		<g>
			<defs>
				<path id="SVGID_9_" d="M41.4,16.7l-1.5,6c0,0,1.8,2.3,4.1-0.5c2.3-2.8,6.2-5.8,6.2-5.8l2,6l-2,6.9c0,0,0.8,2.9,0.8,5.5
					c0.1,2.6-0.6,5.2-0.6,5.2s5.2-0.8,8.9-0.5c3.8,0.3,5.2,0.3,5.2,0.3l-0.1,1.4c0,0-6.6,0.2-9.4,0.9c-2.8,0.7-3.2,1.3-1.8,1.8
					c1.4,0.5,3,0.1,2.5,4.1c-0.5,4-2.8,10.1-0.4,11.4c2.4,1.3,6.5,2.8,7.4,2.8c1,0-0.3,3.1-4.8,1.6c-4.6-1.5-7.4-2.6-7.4-2.6
					l-0.1,5.9l-7.5,0.3l-2.6,7.4L40,76.8l-1.4,7.7L38,95.6l12.4-2.4c0,0,1.7,2.4-1.1,4.3c-2.8,1.9-3.2,2.7-4.7,2.9
					c-1.5,0.2-4.2-0.9-4.2-0.9s-0.5,6.6,0.4,7.5c0.9,1,4.4,0,4.4,0l5.1,17.3l1.3-6.5c0,0,3.8,8.3,5.9,11.5c2.1,3.2,7.8,6.8,7.8,6.8
					s5,4.8,7,4.5c2.1-0.3,2.2-0.8,4.2,0.6c1.9,1.4,3.5,4.5,8.8,4.9c5.3,0.5,8.2,1.1,8.2,1.1s-7.9,11-21.4,3.9
					c-13.6-7.2-26.6-20.6-31.3-27.2c-4.7-6.5-8.3-27.1-8.3-27.1l-6-11.4l7-17.5l3-1l4.6-4.9c0,0,3.9-3.9,3.7-5.5
					c-0.2-1.6-6.8-9.2-6.8-9.2s3.5-1.1,1.9-7.2c-1.6-6.1-8.4-16.2-8.4-16.2l2.7-5.6L41.4,16.7L41.4,16.7z"/>
			</defs>
			<use xlink:href="#SVGID_9_"  style="overflow:visible;fill-rule:evenodd;clip-rule:evenodd;fill:#DBDBDB;"/>
			<clipPath id="SVGID_10_">
				<use xlink:href="#SVGID_9_"  style="overflow:visible;"/>
			</clipPath>
			<g class="st4">
				<defs>
					<rect id="SVGID_11_" x="26.4" y="16.4" width="67" height="141.8"/>
				</defs>
				<use xlink:href="#SVGID_11_"  style="overflow:visible;fill:#DBDBDB;"/>
				<clipPath id="SVGID_12_">
					<use xlink:href="#SVGID_11_"  style="overflow:visible;"/>
				</clipPath>
				<g transform="matrix(1 0 0 1 -1.907349e-06 0)" style="clip-path:url(#SVGID_12_);">
					
						<image style="overflow:visible;" width="780" height="1636" xlink:href="1A901C2B.jpg"  transform="matrix(8.684991e-02 0 0 -8.684991e-02 26.2743 158.4147)">
					</image>
				</g>
			</g>
		</g>
		<g>
			<defs>
				<path id="SVGID_13_" d="M93.2,73.5c1.8-7.9,4.3-13.8,17.6-21.1c13.3-7.2,42.1-16.6,49.3-22.3c7.2-5.8,7.4-9.1,7.3-17.9
					c0-4.4,3.3-3.8,4.5-1.9c1.2,1.8,0.4,4.8,0.4,4.8s2.8-4.7,5.1-5.1c2.2-0.4,4.4,1.9,4.1,5.1c-0.4,3.2-1.5,12.4-16.3,24.4
					c-14.7,12-21.3,9.9-34.4,18c-13.1,8-34,19.7-34,19.7s-3,10.5,7.3,6.2C114.2,79,127.6,71,130.1,71c2.4,0,4-0.1,1.9,2.1
					c-2.1,2.2-12.9,10.9-18.1,14C108.7,90.2,85,97.4,85,97.4s-15.8-5.6-15.8-6.7C69.2,89.6,93.2,73.5,93.2,73.5L93.2,73.5z"/>
			</defs>
			<use xlink:href="#SVGID_13_"  style="overflow:visible;fill-rule:evenodd;clip-rule:evenodd;fill:#DBDBDB;"/>
			<clipPath id="SVGID_14_">
				<use xlink:href="#SVGID_13_"  style="overflow:visible;"/>
			</clipPath>
			<g class="st5">
				<defs>
					<rect id="SVGID_15_" x="69.2" y="7.8" width="112.6" height="89.6"/>
				</defs>
				<use xlink:href="#SVGID_15_"  style="overflow:visible;fill:#DBDBDB;"/>
				<clipPath id="SVGID_16_">
					<use xlink:href="#SVGID_15_"  style="overflow:visible;"/>
				</clipPath>
				<g style="clip-path:url(#SVGID_16_);">
					
						<image style="overflow:visible;" width="1304" height="1036" xlink:href="1A901C2C.png"  transform="matrix(8.684991e-02 0 0 -8.684991e-02 69.0669 97.595)">
					</image>
				</g>
			</g>
		</g>
		<g>
			<defs>
				<path id="SVGID_17_" d="M110.2,147.2c0,0-0.6-0.7,2.2-0.2c0.8-1.2,3.5-0.9,4.4-2c-0.2,0,0.1-3.1,0.1-3.1l-0.2-1.8
					c8,1.2,14.6,2.5,22.4,2.3c7.9-0.2,10.5-2.7,13.2-1.7c0.4,0.2,1,0.2,1.6,0.3c-3.5,5.4-15.4,4.7-21.3,3.8
					c-4.3-0.7-10.1-1.2-13.9-1.4l-0.3,1.4c1.4,0.1,3.7,0.5,7.6,1.3c12,2.4,17.5,3.9,25.3,0.5c7.8-3.4,11.5-11.9,12.4-10.3
					c0.9,1.6,1.6,10.6-9.7,14.2c-11.3,3.6-15.7,1.3-24.9-0.4c-6.1-1.1-9.5-2.9-11.1-3.9l0,0l-3.7,1.4c0.5,0.1,1.1,0.3,1.7,0.5
					c7,2,18.9,6.9,26.1,10c7.2,3,7.1,7,8.7,5.6c1.6-1.4,3.5,3.8,0.9,4.5c-2.6,0.6-7.4-1.1-7.4-1.1l0.3,5.4c0,0-2.4,3-1.9,3.6
					c0.5,0.6-5,1-5,1l-5.4-3.4l-3.8,1.4c0,0-6.1-2.7-11.2-7.8c-5.1-5.1-12.3-10-17.1-12.1c-4.8-2.1-7.3-3.9,0.1-5.3
					C107.9,148.3,110.2,147.2,110.2,147.2L110.2,147.2z"/>
			</defs>
			<use xlink:href="#SVGID_17_"  style="overflow:visible;fill-rule:evenodd;clip-rule:evenodd;fill:#DBDBDB;"/>
			<clipPath id="SVGID_18_">
				<use xlink:href="#SVGID_17_"  style="overflow:visible;"/>
			</clipPath>
			<g class="st6">
				<defs>
					<rect id="SVGID_19_" x="93.1" y="134.5" width="72.4" height="42.4"/>
				</defs>
				<use xlink:href="#SVGID_19_"  style="overflow:visible;fill:#DBDBDB;"/>
				<clipPath id="SVGID_20_">
					<use xlink:href="#SVGID_19_"  style="overflow:visible;"/>
				</clipPath>
				<g transform="matrix(1 0 0 1 7.629395e-06 0)" style="clip-path:url(#SVGID_20_);">
					
						<image style="overflow:visible;" width="840" height="492" xlink:href="1A901C2D.png"  transform="matrix(8.684991e-02 0 0 -8.684991e-02 92.8885 177.1439)">
					</image>
				</g>
			</g>
		</g>
		<path class="st3" d="M52.4,27.9c-0.2-1.9,1.8-2.4,2.6-4c-0.5-0.9-0.8-1.4-1.6-2.1c-0.4-0.4-1.6-1.5-1.8-1.8l-0.6-0.2
			c-0.8,0.9-3.5,3.1-3.8,4.3c0.5,0.8,1.4,1.2,2.2,2c1.3,1.2,0.5,1.5,0.4,3.1c0.5,0.1,0.8,0.1,1.2,0.1c0.1,0,0.7,0,0.8,0
			c0.9-0.2,0.3,0,0.7-0.2L52.4,27.9L52.4,27.9z M53.5,158.8c-1.5-0.6-1.2-0.3-2.3,0.3c-2,1.1-3.5,2.4-4.8,2c0.1-0.9,3.1-3.2,5.7-3.4
			C52.4,157.6,53.3,157.7,53.5,158.8L53.5,158.8z M52.2,160.6l1.7-0.2c1.5-0.1,3,1.2,3.2,2.1c-2.7-0.7-2.1-1.5-5.1,0
			c-3,1.5-2.5,3.1-4.2,2.1c-0.2-0.8-0.3-1.1,0.3-1.7C49.5,161.7,50.2,161.3,52.2,160.6L52.2,160.6z M55.9,157l-0.5-2.3v-0.9
			c1.7,0.3,3.9,3.2,3.9,5.2C57.1,158.6,56.9,157.9,55.9,157L55.9,157z M54.4,149.1l-0.5-2.8c0.3-0.5-0.1-0.7,1.5,0.7
			c0.4,0.4,0.9,0.8,1.3,1.2c1,0.9,1.2,2.4,1.2,4c-1.5-0.2-2.3-0.9-2.9-2.1L54.4,149.1L54.4,149.1z M50.8,139.4c-0.6-0.5-1-1.1-2-1.1
			c-1,1.5-0.1,3.2,0.4,4.9c0.5,1.6,0.9,2.9,1.4,4.4c0.7,2.1,2.4,6.8,2.7,8.9c-1.8-0.6-4.2,0.8-5.7,1.5c-0.4,0.2-1.9,1.1-2.2,1.4
			c-0.7,0.7-0.9,2.7-0.8,5c0.4,1.3,0.3,2.3,1.6,2.9c-0.1-0.7-0.3-1.5-0.1-2c1.6,0.4-0.4,4,3.2,5.9c0.1-1.1-0.2-1.2,0-2.1
			c0,0,0-0.1,0-0.1c0.7,0.3,0.2,0.6,0.3,1.6c0.3,2.9,1.4,4.2,4.4,4.5c0.8,0.1,1.3-0.4,1.5-0.3c-1-1.5-2.8-4-1.8-5.1l1.6-1.2
			c0.9-0.7,1.1-0.7,2,0c2.3,1.7,4.3,3.7,6.2,5c0.7,0.4,0.9,0.4,1.2,1.4c-2,1.2-2.2,1.6-2.2,3.2c0,1.3,0.1,2.9,0.1,4.4
			c0.1,0.8,0.4,1.1,0.9,1.7c0.2,0.2,0.2,0.3,0.5,0.6c0.7,0.5,2.3,1.1,3.4,1.2c-0.4-1.5-1-2-0.6-2.7c0.6,0.2,0.4,0.1,0.7,0.8
			c0.9,2.5,1.4,4.8,6,4.6l-0.9-1.5c-0.2-0.7,0.4-0.3,0.5-0.4c0.6,0.3,0.6,0.6,0.8,1c1.3,2.9,1.7,4.4,5.7,3.6
			c0.3-0.1,0.8-0.6,1.1-0.6c-0.5-1.2-1-1.7-1-2.4c-0.2-1.7-0.5-4.4,0.6-5.5c0.5-0.3,3.1,1.6,4.4,2.1c8.9,2.4,9.6,0.4,11.9,0.7
			c-0.1-1.9-1.1-5.1-1.9-6.3c-0.5-0.7-1.4-1.6-2.1-2.1c-0.8-0.6-1.9-1.3-2.5-1.9c1.6,0,3.7,0.6,4.9,1.2c1.3,0.7,2.5,2.2,3.5,2.7
			c0-4.4-0.4-7-1.9-10.2l-3.2-5.8c-0.4-0.6-1-1.2-1.2-1.9c0.7,0.1,1.7,0.4,2.3,0.2c0.5-1.4-2.2-4.5-2.7-5.3c0.6-0.4,1.6-0.4,2.5-0.5
			c1.8-0.2,5,2.4,6.3,3.3c0.9,0.6,5,3.8,6.1,3.5c0.8-0.2,0.1-0.6,0-2.5c1.2,0.7,9.6,8.6,11.8,10.5c3.8,3.2,6,5.3,10.8,6
			c2,0.3,3.2,0.1,4.2-1.1c3.6,4.4,8.4,4.6,12-0.4c1.1-1.6,1.5-2.9,0.7-5c1.8,0.4,4.3,1.4,6.6-0.4c1.6-1.2,3-3.3,1.8-6
			c-1.1-2.7-6.3-7.3-8.9-8.6l0.3-0.1c0.5-0.2,4.1-0.7,5.5-1c5.1-1.2,10.4-3.8,12.8-8.4c0.7-1.4,1.3-3.5,1.4-5.7
			c0.1-5.4-2.1-7.9-6.6-4.4c-0.7,0.6-1.2,1-1.9,1.6c-0.7,0.6-1.1,1.3-2,1.7c-0.2-1.4-0.6-2-2-2.3c1.2-0.8,2.3-1.2,2.9-2.6
			c0.8-1.9-0.2-6.4-4.7-5.2c-1.7,0.4-2.7,1.4-3.9,1.8c0.4-1,1.1-1.8,0.3-3.2c-1.5-2.6-6.1-0.8-9.5-0.1c-5.2,1.1-9.5,1.2-15.2,1.1
			c0.4-0.6,0.6-0.4,1.1-1.3c-1.3-1.2-3.9-0.9-5.9-1.2c-4.8-0.6-10.1-1.4-14.2-3.9c-0.8-0.5-1.4-1-2.2-1.4c-2.4,0.9-1.5,1.3-6.1,2
			c-2.4,0.3-5.4-0.1-7.7-0.1l0.4,0.7c0.5,0.7,1.7,2.2,1.9,3.3c-5.8,2.8-20.1-1-25.8-4.6c-6.3-3.9-11-10.4-12.9-19.3
			c-1.1-5.5-0.3-9.1,1-14.2c0.7-3,1.7-6.2,3.2-8.8c1-1.7,0.9-1.8,1.4-2.8c3.6-6.8,9.7-12.6,15.6-16.8C79.5,55,86.6,51,93.9,47.8
			c11.9-5.2,22.2-9.3,34.4-13.9c3.8-1.4,8-2.9,11.8-4.4c7.5-2.8,7.5-2.9,13.3-6.8c0.8-0.7,4.4-3.5,6.5-6c2.1-2.5,4-2.8,4.7-2.1
			c1.5,1.6,0.3,4.9-0.5,6.3c-2.2,3.9-4.6,5.4-8.5,7.6c-7,4-26.2,9.9-35,13.3C104.3,48,91.2,53,76.7,62.7c-9.6,6.4-18,15.5-19.9,28.4
			c-2.3,16.1,9.5,29.4,23.5,32.2c2.3,0.4,5.1,0.4,7.3,0.9c0.1-0.2,0.1,0,0-0.3c-1.8-1.2-3.4-3.7-8.1-6.4c-0.7-0.4-0.9-0.4-1-1.2
			c4.2,0,7.4,4.4,13.3,3.6c1.5-0.2,3.4-0.7,4.4-1.4c-0.2-1.1-2-3.1-2.6-3.9c-6.2-7.5-10.6-5.2-13.7-6.2c0.9-1,5.9-0.3,7.1,0
			c2,0.6,3.6,1.8,5.4,2.8c2,1.1,3.7,1.8,6.3,0.8c1.5-0.6,4.1-2.2,4.5-3.6c-0.6-0.4-0.8,0.2-1.7-1c-5.1-6.9-11.1-5.7-12.7-6.9
			c1-1.3,4.3-0.4,5.9-0.1c10,1.4,19.1-3.2,26.2-9.4c1.4-1.3,2.3-2,3.7-3.5c5.2-5.7,1.8-4.8-1.7-4.5c0.5-0.5,1.2-0.8,1.8-1.2
			c2.8-1.9,8.8-6.7,9.8-10c0.7-2.5-1.5-1.3-4.5-1.8c1.9-1.3,4.5-3.2,5.6-5.2c0.7-1.3,3.1-6.2,3-7.8c-1.6,0-2.9,0.3-4.1,0.3
			c0.8-1,8.2-4.1,9.8-4.8c3.5-1.5,6.6-3.1,9.8-4.8c11.7-6.2,19.2-11.8,25-21.7c2.5-4.3,6.3-13.6,0.9-16.4c-0.1-3.9-0.8-5.4-4-5.6
			c-1.1-0.1-1.7,0.5-2.5,0.8c-0.3,0.3-0.8,0.5-1.2,0.8c-0.5,0.4-0.5,0.7-1.1,1.1c-0.9-0.7-1.2-1.3-2.8-1.5c-1.2-0.2-2.8,0.3-3.6,0.7
			c-2.5,1.1-2.5,3.2-1.8,6.2c-1.1,0.7-2.3,1.3-3.4,2.4c0.3-2.2,0.7-2.9-1.3-4.2c-1.4-0.9-3-1.3-4.9-0.5c-2,0.8-3.5,2.2-4.6,3.2
			c-7.8,7.3-8.9,8.7-18.3,14.5l-9.8,5.8c0.3-0.8,2.4-3.9,3.4-6.3c1.2-3,3.7-9.5,0.5-12.1c-1.8-1.5-4.1-1.1-5.2,1
			c-1.7,3.2-5.2,11-8,11.9c0-1.5,0.9-3.2,1.4-4.5c0.4-1,0.7-2.1,1.1-3.2l0,0c0.3-2,0.5-5.1-2.1-5.4c-3-0.4-3.2,2.5-4.1,4.7
			c-0.3,0.9-1.5,2.8-2,3.8c-0.5,0.9-1.5,3.1-2.3,3.3c-2.7-1.1,1.8-8.8-1.9-9.9c-1-0.3-1.9-0.1-2.7,0.2c-1.7,0.7-5.6,5.5-7.1,7.4
			c-0.4,0.5-0.9,1.1-1.4,1.4l-0.2-1c-0.2-1.1-0.7-3.1-1.6-3.8c-1.4-1.1-3-0.5-4,0.4c-4.8,3.9-9.5,8.4-15.8,9.5c0-0.4,1.1-3.7,1.9-5
			l0,0c0.9-1.7,1.9-3.8,1.9-3.8c-0.9-0.5-0.9-0.7-2.5-1c-0.1-1.6-0.3-1.3-1.3-1.9c0.3-0.8,0.5-1.6-0.2-2.1c-0.8-0.7-1.4-0.2-2.3-0.1
			c-0.7-2.4-0.4-2.7-3.3-1.9c-0.5-0.6-0.6-1.2-1.6-1.3c-1.4-0.1-1.3,0.5-1.9,1.2c-0.6-2.7-3-2-3.4-0.4c-0.1,0.2-0.1,0.3-0.1,0.4
			c-0.1,0.4,0,0.2-0.2,0.5c-0.6-0.5-0.1-0.9-0.2-1.9C54.9,9.7,50,9.7,48.1,12c-1.2,1.5-0.4,2.2-0.3,3.7c-0.6-0.8-1.4-3.5-4.1-1
			c-0.5-0.6-0.7-1.3-1.8-1.3c-1.3,0-1.5,0.7-1.9,1.4c-0.8,0-1.6-0.1-2.3,0c-0.9,0.2-1,0.6-1.6,1c-1.3,0.8-2.2,0.2-3,1.8
			c-0.5,1-0.3,1.1-0.8,1.5c-0.8,0.5-1,0-1.5,1c-1.1,2-0.3,2.2,0.4,3.6c-5.2,0.9-4.6,1.8-2.3,4.4c1.4,1.7,1.3,0.6,2.3,1.7
			c1.2,1.3,2.4,3.1,2.6,5.4c-1.1,0.2-2.2,0.6-3.1,1.1c-0.9,0.4-2.1,0.7-3.1,1.1c-3,1-8.3,3.9-10.9,5.8l-3.5,2.8
			c-0.5,0.4-0.7,0.5-1.2,1c-1.5,1.8-2.2,2.1-3.8,4.5c-3.3,5.1-3.3,14.3,0.7,18.9c0.4,0.4,0.1,0.2,0.6,0.6c-0.3,0.7-0.3,1.1-0.1,1.7
			c0.3-1,1.1-2.3,1.4-2.8c2.6-4.6,10.8-12.7,13.4-16.1c0.9-1.3,4.6-5.1,6.1-6.6c0.5-0.5,0.9-1.1,1.3-1.7c0.5-0.6,0.8-1.4,1.3-2
			c1.7,0.1,1.3,0.2,0.8,1.6c-0.9,2.3-2.5,3.9-4.1,5.7c-5,5.8-10.3,10.4-15.3,17.2c-2.2,2.9-4.2,6-5.4,9.5c-1,2.8-1.6,7.5-0.8,10.6
			c0.6,2.5-0.9,5.4-0.7,11c0.3,7.7,2.8,12.6,9.1,15.6c1.6,0.8,5.2,2.2,5.6-0.7c-0.4-4.5-7.5-2.5-5.3-5.8c0.9-1.3,4.8-3,6.5,2.7
			c0,0,0.1,0.1,0.1,0.2c0.5,0.8,2.5,2.4,5.2,2.5c-0.7-0.8-1-0.9-1.3-2.1c-0.4-1.1-0.5-2.2-0.5-3.4c0-5.1,2.8-2.8,3.3,0.7
			c0.2,1.2,0.5,2.1,0.7,3l2,0.4c0.8,1.1,0.8,3.5,1.1,5.1c0.7,4.2,2,10.5,5.9,12.2c0.3-1,0.9-1.7,1.8-2c0.1,0.1,0,0,0.1,0.3
			c2.3,4,6,8.1,9.5,10.9c2.8,2.2,9.4,6.4,12.6,8.6c3.1,2,2.6,1.8,4.9,5.6c3.9,6.4,4,7.3,6.2,14.8c0.3,1.1,1.1,3.2,0.8,4.3
			c-0.3,1.1-1.2,2.8-1.9,3.5c-0.6,0.1-1.1,0.1-1.8,0c-0.8-0.1-0.8-0.3-1.3-0.6c-1.2-0.8-1-0.7-1.3-2.3c-0.4-1.9-1.1-4.4-1.3-6.1
			c0.9,0.5,3.4,2.2,4.1,2.3c-0.4-1.6-0.3-2.4-0.9-3.9c-1.7-4.3-4.2-9.6-6.5-13.8c-0.5-0.9-0.5-0.8-1.3-1.4
			C58.3,145.7,55.7,143.5,50.8,139.4L50.8,139.4z M54.9,43.5c0.3,0.6,0.2,0.6,1.9,0.3c2.4-0.3,5.8,0.3,5.5-1.9
			c-0.9-0.3-2.7,0.3-3.8,0.6L55.8,43C55,43.2,55.3,42.9,54.9,43.5L54.9,43.5z M60.5,45.9c0.4-0.3,0.4-0.3,0.9-0.5
			c0.7-0.4,0.5-0.2,0.7-0.8c-0.1,0-5.1,0.7-5.5,0.8c0.1,1.5,3.5,1.8,4,1.7c0.1-0.2,0.1-0.1,0.1-0.4C60.6,45.7,60.5,46.8,60.5,45.9
			L60.5,45.9z M131.6,172.2L131,173c-2.8,0.4-7.2-2.9-8.5-4.1c-0.6-0.5-1.1-1-1.7-1.4l-3.4-3.1c-1.1-1-4.1-3.9-5.1-4.4
			c-3.5-1.8-4.9-3-8.1-4.5c-0.9-0.5-4.1-1.7-3.4-2.9c1-1.8,10.3,2.4,12,3.1l6,3.8c2.5,1.7,4.9,3.8,7,5.7
			C127.2,166.6,130.9,170.7,131.6,172.2L131.6,172.2z M38,37.7l-2.9,1.1c-0.2-0.7-0.6-1.2,0.2-1.8c0.6-0.4,1.2,0,1.9,0.3
			c2.8,0,1.7-1.3,3.2-1.6c3.8-0.9,2-0.1,3.5,0.2c1.9,0.4,2.5-1,3.4-1.1c0.7-0.1,1.6-0.1,2.4-0.1c0.9-0.1,1.8-0.3,2.1,0.3
			c0.9,0.3,1.8,1.2,3.2,0.3c0.6-0.3,0.6-0.7,1.4-0.7c0.4,0,1.5,0.1,2,0.1c1.5,0.3,0.7,1.5,3.1,1.4c1.3-0.1,2.1-1.5,3.4-0.6
			c0.5,0.3,0.5,1,0,1.3c-0.3,0.2-5.1-0.4-5.7-0.4c-2.4-0.3-5.9-0.4-8.4-0.2c-2.1,0-4.4,0.3-6.5,0.5C42.1,37,40.1,37.4,38,37.7
			L38,37.7z M51.9,32.8c-0.4,0.6-2.6,0.3-3.5,0.3c-2.2,0.2-1.7-0.7-3.1-0.8c-1.1-0.1-2.1,0.5-2.6,1.1c-0.7,0.9-1.4,0.8-2.8,1
			c-0.8-0.5-1-1.1-2.3-0.8c-1.1,0.3-0.6,1-1.9,1.4l-0.5,0.1c0,0,0-0.6,0-0.6c0.1-0.4,0.1-0.2,0.2-0.3c1.1-1,4.8-1.7,6.7-2.1
			c1.4-0.2,2.4-0.5,3.8-0.6c1.4,0,2.8-0.1,4.3-0.2c5.1,0,9.8,0.8,14.6,1.9l-0.1,1.3l-1.3-0.1c-1.9-2.8-1.8-1.1-4.1-1
			c-0.6,0-1.4-0.1-2-0.2c-2.6-0.1-1.1-0.5-2.7-1.2C52.8,31.4,52.6,32.8,51.9,32.8L51.9,32.8z M10,67.7c-2.1-3-2.6-8.3-1.4-12.1
			c1.1-3.5,4.1-7,6.1-8.7c3.1-2.7,4.9-4.1,8.6-6.2c2.3-1.3,7.8-3.8,10.6-4.3c-0.2,0.6-0.7,1.4-0.6,2c0.1,0.7,0.8,1,1,1.9
			c-1.7-1.1-7.9,1.8-9.2,2.5c-4.7,2.4-9.9,6.6-12.3,11.5c-1.9,4-1.7,6,0,9.3C12.1,65,11,66.2,10.4,68C10,67.8,10.3,68.1,10,67.7
			L10,67.7z M36.2,40.9c0-2,1.3-2.2,3.4-2.5c3.1-0.8,8.9-0.9,12.3-1c3.2,0,7.9-0.1,11.1,0.4c1.2,0.2,2.4,0.2,2.2,1.5
			c-1,0.2-5.2-0.3-6.8-0.4c-2.5-0.1-5,0-7.6,0c-2,0.1-3.9,0.2-5.8,0.4c-2,0.2-3.8,0.6-5.7,0.8l-1.8,0.4
			C37.1,40.5,36.8,40.7,36.2,40.9L36.2,40.9z M42.2,48.6c-0.8-1.1-2-3-1.2-4.5c0.3-1.2,0.9-1.5,2.8-1.5c1.6,0,1.9,0.8,2.9,1.3
			c1.8-1.8,1.3-2.1,4.7-2.5c3.5-0.9,9.1-1,12.8-0.8l0.5,0.1l0.2,0.7c1.4,1.8-1.1,1.9-0.8,3.8c0.7,0.2,1.1-0.1,1.5,0.2
			c-0.5,0.5-0.5,0.5-1,0.9c0.3,1.8,2.7,3.8,2.7,5.1c-0.5,0.5-1,0.5-1.7,0.8c-0.3,0.1-0.8,0.2-1,0.3c-1.6,0.6-0.4,1.7-0.2,2.9
			c-1.5,0.8-2.9,0.1-4.3,0.4c0.4,1.3,2.7,0.5,3.7,1.3c-0.3,0.8-1,1.2-1.3,2c-0.4,0.9,0.4,1.3,0.5,2.5l-1.1,0.8
			c-1.1,0.7-2.1,0.7-3.4,0.4c-4-0.9-8.4-2.8-10.2-6.6c-0.5-0.9-0.6-1.5-0.9-2.4c-0.2-0.5-0.5-1-0.8-1.4
			C45.6,50.6,43.3,50.2,42.2,48.6L42.2,48.6z M53.6,30.7c-2.9-0.2-5.9-0.1-8.7,0.2c-2.9,0.3-5.2,1-7.9,1.5c-0.6,0.3-1.5,0.5-2.2,0.5
			c-0.2-0.4-0.8-1.7-0.8-2.1c0-0.4,0.9-1.5,1.1-1.7c0.5-1.3-0.9-0.5-1.7-1c-0.9,0.1-2.5,0.1-3.1-0.3c-0.3-0.2-1.4-1.6-1.6-2
			c0.7-0.6,2.9-0.9,3.9-0.9l6.7-0.2l3.4,5.2l2.5-0.4c1-0.2,0.4,0,0.8-0.4c0.5-0.7,0-3-0.2-3.9c-0.5-2.4,0.7-3,3-5.9
			c0.5-0.7,1.7-2.2,2.6-2.4l0.2,0.5c1.2,0.3,3.5,3.5,4.3,4.7c1,1.4,1.1,1.1,0.8,3.3c-0.2,1-0.6,3.1-0.4,4.1l4.5,0.5
			c0.8-5.2-0.7-5.1,2.1-6.6c2.5-1.4,3.7-1.7,7.1-1.3l-2.1,4c-3,0.2-2.8,0-2.1,1.5c0.2,0.5,0.6,1,0.6,1.4c0,0.3-1.1,2.3-1.4,2.7
			C63.4,32.1,57.4,30.7,53.6,30.7L53.6,30.7z M79.9,30.5l-5.8,2c-1.3,0.5-4.7,1.7-6,1.8c0.5-1.9,1.7-2,3.8-2.8
			c4.7-1.8,9.1-5.4,12.2-8.9c3.7-4.4,5.7,1.5,3.4,5.5c-0.9,1.5-2,2.4-3.5,3.4c-1,0.7-3.6,2.1-4.2,2.7c1.8,0.4,6.4-2.5,7.5-3.3
			c2.2-1.6,4.2-3.3,5.8-5.3c0.9-1.1,1.5-1.8,2.4-3c0.6-0.8,2.5-4.3,3.7-4.5c0.9-0.2,1.5,0.4,1.6,1.1c0,0.9-1.8,2.6-2.3,3.2
			c-4.3,4.6-3.9,5.6-11.3,10.6c-1.4,0.9-12,7-9,1.1C78.6,33.3,80,31.5,79.9,30.5L79.9,30.5z M39.9,21.3c-1,0.3-2.7,0.1-3.6,0.8
			c-1.5,1.1-0.6,2.2-2.4,1.9c-0.5-2.6,3.5-5.1,6.7-5.6c1.2-0.6,5.8-1,7.3-0.8c0,0.8-0.7,1.4-1.1,1.8C44.9,21.5,44.7,21.2,39.9,21.3
			L39.9,21.3z M56.5,19.4c-0.5-0.1-1.9-1.4-2.2-2c0.7-0.9,11.1-0.2,12.3,3.8c-2.1,0.6-1.3,0.2-3.2-0.5
			C60.5,19.6,57.6,19.7,56.5,19.4L56.5,19.4z M50.4,11.4c4-1.3,4.7,3.1,1.7,4.1C48.4,16.9,47.6,12.3,50.4,11.4L50.4,11.4z
			 M51.7,168.5c-0.4-0.2-0.6-0.4-0.8-1c2.4-2.3,5.3-6.6,9.1-2c-2.6-0.4-1.1-2-4.1,0.1C54.2,166.7,53.9,167.6,51.7,168.5L51.7,168.5z
			 M74.8,156.7c1.8-0.1,3.9,2.5,4.7,3.5c1.2,1.5,2.4,2.8,2.6,5.4c-1.3-0.1-4.5-2-5.6-3.1C74.6,160.7,74.8,159,74.8,156.7L74.8,156.7
			z M77.9,167.5l-0.2-1c1.2,0.3,3.5,2,4.3,2.7c1.1,1,1.8,2.9,1.9,5C80.9,173.4,78.5,170.5,77.9,167.5L77.9,167.5z M77.6,180.5
			c-1.5,1-0.8,4.5-1.4,5.6c-2.3,1.4-2.4-4.8-1.6-6C75,179.1,77.4,179.4,77.6,180.5L77.6,180.5z M70.2,183c-0.9,0.5-1.7-0.8-1.8-1.8
			c-0.3-2.9,1.2-4.5,3.3-3.9c0.1,0.6,0.4,0.7,0.1,1C70.1,180.1,71.1,182.3,70.2,183L70.2,183z M66.1,178.6c-0.2,0.8-0.2,1.6-1.6,1.4
			c-1.9-3,2.4-5.7,3.6-3.7c-0.2,0.3-0.4,0.4-0.6,0.5C66.7,177.2,66.3,177.8,66.1,178.6L66.1,178.6z M36.7,65.3
			c-0.8,0.1-0.8,0.2-1.4-0.3c-0.7-1.2,0.1-2.5,1.4-2.1c0.5,0.1,0.8,0.6,0.7,1.3C37.4,64.9,37.1,64.9,36.7,65.3L36.7,65.3z
			 M39.4,97.2c0.7,0.3,0.4,1.1,0.5,2c0.1,1,0.4,2.7,1.5,3.2c-0.2-1.1-0.7-3.9-0.2-4.7c0.4-0.6,1.7-0.7,2.2-0.4
			c0.5,0.6,0.3,2.4,0.3,3.3c0,2.7-0.2,3.7-1.1,5.7c-3.6-0.6-4.9-6.3-4-9.2L39.4,97.2L39.4,97.2z M40.3,107.4c0.6,0.3,0.9,0.3,1,1.1
			c0.1,0.7,0.3,5.9,0.8,7.4c0.2,0.6,0.8,2.6,0.3,3.5c-0.7,0-0.8-0.4-1.2-1c-2.5-3.3-5.3-8-4.1-12.5C37.9,106,39.6,107,40.3,107.4
			L40.3,107.4z M43.6,113.9c-0.1-1-0.2-2.1-0.2-3.1c0-0.5,0-2.4,0.2-2.9c0.6,0.8,2,5.3,2.8,7c0.4,0.8,0.8,1.4,0.9,2.1
			c0.8,0.4,0.3,0.5,1.3,0.7l-0.1-0.9c-0.4-2.5-1.8-6.7-1.6-9.1c1.4,1.6,3,3.6,3.7,6.2c0.7,2.4,0.7,6.2-0.4,8.3
			c-0.1,0.5,0,0.3-0.3,0.5C46.4,121,44.1,117.7,43.6,113.9L43.6,113.9z M53.6,126.7c-0.6-2.1-2-4.4-1.8-7.8c0.3,0.3,0.1,0,0.4,0.4
			l0.8,1.5c0.6,1.1,3,5.5,3.1,6.2c0.5,0.4,0.2,0.2,0.6,0.8c0.6,1,3,5.1,4.1,4.6c-1.5-1.7-6.7-10.1-7.3-12.2c1.2,0.6,5.4,5,6.6,6.2
			c1.9,2,4.4,5.7,4.6,8.5l-2-0.3l-0.4,0c-0.5-0.3-1.8-0.8-2.4-1.1c-0.7-0.4-1.6-1-2.1-1.5c-1.3-1.2-2.1-2.2-3.4-3.9L53.6,126.7
			L53.6,126.7z M69.1,138.3c-1.1-0.9-1.6-1-2.5-2.4c-0.7-1-1.2-2.3-1.4-3.7c1.2,0.3,1.8,1.1,2.6,1.8c1.7,1.4,6,4.7,8.3,3.8
			c-0.2-0.6-0.5-0.6-1.2-0.9c-2.5-1.1-7.7-4.6-8.6-6.5c5.7,0.4,12.7,3.2,12.5,9.1c-3.1,0.2-5.4,0-8.2-0.6L69.1,138.3L69.1,138.3z
			 M77,145c0.6,0.6,3.6,3,3.7,3.7c0.2,2.4-6.9-0.7-7.7-1.3c-1-0.8-1.5-1.6-2.2-2.7c-0.5-0.8-1.6-2.4-1.4-3.3
			C72.1,141,75.1,143.3,77,145L77,145z M75.6,141.6c0.1-0.6,0-0.5,0.8-0.6c2.5-0.4,8.5,3.6,9.6,2.9c-1-2.2-4.8-1.4-5.2-5.6
			c6.3,0.9,8.9,7.3,8.7,8.1l-1.2,0.5c-2.8,0.5-6.9,0-9.2-1.8C77.3,143.8,76.8,142.8,75.6,141.6L75.6,141.6z M91.6,144.8
			c-0.9-0.8-1.1-0.8-2.3-2.2c-0.5-0.6-2.2-2.8-2.4-3.8c1.8,0.2,3.3,0.6,4.8,1.3c1.3,0.5,2.9,1.7,4.5,1.4c-0.6-2.1-5.8-2.4-7.4-3.7
			c6.9-1.7,8.7,0.4,11.9,6c0.6,1,1.9,2.7,1.3,3.9C101.3,147.8,92.8,146.1,91.6,144.8L91.6,144.8z M102.6,136.9
			c-2.8,0.4-4.7,0.9-6.8-0.7c-0.8-0.6-1.4-1.1-2.4-1.8c-1.3-0.8-1.4-0.7-1.8-2.4c3.1,0.2,5.8,2.7,8.8,2.8c-0.4-1.5-1.3-1.4-2.7-2
			c-1.1-0.4-2.4-1-3.5-1.4c0.5-1.4,1.4-1,3-1.3c1.8-0.1,4.5,0.7,6.1,1.3c1.5,0.6,2.4,1.4,4.2,1.6c0.9,0.2,1.2,0,1.5,0.5
			c0.3,0.9-0.2,0.8-1.1,1.2c-0.7,0.3-0.8,0.5-1.7,0.8C105.3,136,103.4,136.4,102.6,136.9L102.6,136.9z M84.6,129.8
			c0.4,0.5,1.3,1.1,2,1.7c0.5,0.4,0.4,0.3,0.5,0.7c0.4,0.3,0.1,0,0.5,0.4c0.9,0.8,1.6,2,1.7,3.2c-1.1,0.3-2.4,0.3-3.6,0.3
			c-3.6-0.1-8.2-1.5-10.6-4.3l-1.2-2c-0.6-1.1-0.2-0.6,0.1-0.8c1.1,0.3,2,0.2,2.8,0.8c1.8,1.4,3.1,2.1,4.8,3.2
			c0.7,0.5,1.5,1.2,2.7,1.2c-0.1-1.4-4.2-3.3-5.1-4.3l-0.2-0.2C80.7,129.7,83.3,129.5,84.6,129.8L84.6,129.8z M71.9,128.5l0.2,1.6
			c-5,0.1-8.1-1.5-10.4-5.5c-1.2-2.1-0.4-1.4-0.3-1.6c0.4,0.8,3.6,2.5,4.7,3.1c1,0.5,1.5,0.8,2.8,1.2
			C69.8,127.7,71.2,128.1,71.9,128.5L71.9,128.5z M59.4,121.3c0,1.1-0.1,1.2-0.4,2.1c-0.5-0.2-2.3-1.8-2.7-2.2
			c-2.4-2.3-3.5-4.9-4.3-8.2c-0.1-0.4-0.3-1.1-0.3-1.5c0-0.5-0.1-0.2,0.2-0.5C51.9,112.9,58,121,59.4,121.3L59.4,121.3z M49.9,107
			c0,0.9,0,0.8-0.3,1.5c0,0-0.1,0.1-0.1,0.1c-2.6-2-5.8-8.6-4.3-12.1l1.2,0l0.3,0.1l0.2,2.5c0.1,0.8-0.1,1.5,0.6,1.8
			c0.4-0.6,0.2-3.4,0.6-4.4C48.6,100.2,48.5,103.9,49.9,107L49.9,107z M109.7,151.9c-0.4-2.1,4.7-0.2,5.4,0.1
			c3.3,1.3,12.3,5.7,15.1,7.2c3.8,2.1,10.6,5.7,12.8,9.4c1,1.7,2.2,3,0.6,5.3c-1,1.4-2.9,2.2-4.8,0.8c-0.6-0.5-1.1-1.3-1.8-1.8
			c-0.8-0.6-1.2-1.3-1.9-1.9l-2.9-2.6c-1.3-1.3-0.4-0.5-1.9-1.9c-3.1-2.7-3.4-3.1-7-5.8c-2.7-2-8.1-5.9-11.1-7.3
			C111.4,153,109.8,152.6,109.7,151.9L109.7,151.9z M118.1,147.7c1.6,0.2,3.1,0.9,4.8,1.3c1.8,0.4,11.7,3.8,13.6,4.5
			c2.9,1,6,2.1,8.5,3.5c2,1.1,5.7,4,6.1,6c0.1,0.2,0.5,0.3,0.6,1.3c0.1,0.6,0.1,1.2-0.2,1.7c-1.3,2.3-6-0.9-7.4-1.8
			c-1.9-1.2-7.4-4.6-9.1-5.5c-2.6-1.3-1.9-0.8-4.7-2.5c-2.3-1.4-7.3-3.6-9.9-4.6c-0.9-0.3-1.7-0.7-2.6-1c-1.2-0.5-1.8-0.6-1.8-2
			C116.9,147.8,116.8,147.6,118.1,147.7L118.1,147.7z M152.8,140.7c-0.6,1.3-1.3,1.5-2.7,2.1c-1.2,0.5-2.2,0.8-3.7,1
			c-6,0.9-15.8-0.3-22-1.4c-1.2-0.2-2.4-0.7-3.1-1.8c-0.2-0.4-0.2-0.1-0.2-0.8c1.4-1,1.8-0.8,4-0.7c1.5,0.1,3,0.3,4.4,0.4l9.3,0.4
			c3.3,0,5.9-0.2,8.7-0.8c1.2-0.3,2.6-1.1,3.8-1.2C153.2,138,153.8,139.6,152.8,140.7L152.8,140.7z M101.9,141.6
			c2.8,0,6.1,1.8,7.2,1.1c-0.1-1-0.5-0.7-1.4-1.2c-0.6-0.4-1-0.6-1.7-0.8c-1.3-0.5-3-0.5-4.1-1c0-0.9,0.2-1.1,1-1.4
			c2.8-0.9,2.8-0.7,5.5,0.7c2.2,1.2,4.2,2.8,5.5,4.3c1.4,1.5-0.5,1.7-1.9,2c-1.8,0.3-7.2,0.8-8.5-0.5
			C102.8,143.9,102.3,142.7,101.9,141.6L101.9,141.6z M161.8,142.8c-2.2,4.6-8.6,7-13.5,7.7c-2.6,0.4-4.1,0.8-6.4,0.7
			c-6.3-0.4-11.7-1.9-17.3-3.9c-0.6-0.2-4.1-1.4-4.3-2c0,0,0-0.1,0-0.1c-0.1-0.4-0.1-0.1,0.1-0.3c0.6-0.6,1.8-0.7,2.6-0.6
			c9.7,1.4,24.8,4.6,32.3-2.2c1.1-1,2.7-2.2,3.7-3.4c0.8-0.9,1.6-2.3,3.1-2.2c0.2,0,0.6,0.2,0.7,0.2c0.7,0.6,0.2,0,0.3,0.6
			c0.2,0.2,0.1-0.3,0.4,0.6C163.7,139,162.4,142.1,161.8,142.8L161.8,142.8z M68.9,144.2c-0.9,0.1-2.9-0.9-3.8-1.3
			c-1.3-0.5-2.5-1.4-3.3-2.1c-2-2-2.2-2.3-3.9-4.3c-3.5-4.1,5.3,0,6.8,1.2c1.2,0.9,1.8,1.5,2.6,2.8C67.7,141.3,69,143.4,68.9,144.2
			L68.9,144.2z M153.8,133.3c-1,2.1-4.2,3.5-6.6,4.1c-3,0.7-6.6,1-9.9,1c-2.7-0.1-19.2-0.4-17.7-3.8c0.4-1,3.1,0.1,4.3,0.1
			c1.7,0.1,3.7,0,5.4,0c5.9-0.1,9.3-0.3,14.9-1.2c1.9-0.3,2-0.3,3.8-1.3c1-0.5,2.5-1.7,3.6-1.9C153.5,130.2,154.5,131.8,153.8,133.3
			L153.8,133.3z M116.1,128c1.2-0.1,2.7,0.4,3.9,0.7c3.3,0.7,9.6,1.2,12.7,0.7c2.5-0.4,5.3-0.9,7.7-1.6c1-0.2,3-0.6,4-0.6
			c2.9,0.1,1.4,3.8-1.6,4.4c-3.2,0.6-9.8,0.9-13,0.9c-4.9,0-8.7-0.9-13-3.1C115.9,129,115.9,128.9,116.1,128L116.1,128z M95,124.6
			c0.7-1.9,8.1,0.6,9.5,1.4c3,1.6,3.1,2.2-0.8,3c-3.6,0.7-9.7-0.9-9.4-3.1c1-0.4,3,1.1,5,0.9C99,125.9,95.8,125.1,95,124.6L95,124.6
			z M44.3,124.1c-0.1-0.3-0.4-2.4,0.5-2.3c0.2,0,1.2,0.9,1.6,1.2c2.5,1.6,2.1,1.1,3.7,2c3.3,1.8,2,3.4,5.2,6.6
			c0.4,0.4,1.2,1.6,0,1.8c-0.2,0-1.7-0.6-2.1-0.8C49.4,131.3,45.3,127,44.3,124.1L44.3,124.1z M38.3,93.8c-1.1-0.6-1.8-1.7-2.8-2.6
			c-1.6-1.4-2.6-2.6-4-4c-0.7-0.7-0.7-0.7-0.5-2c0.2-1.5,0.1-3.7,1.4-4.1c0.9,0.3,2.6,2.6,3.3,3.3c1,1.2,2.3,2.5,3.1,3.6
			c0.6,0,0.8,0.7,1.4,1.1c1.6-0.2,4-1.2,5.5-1.8c1.8-0.7,4.6-2.6,5.3-1.6c0.5,0.7-0.3,1.5-0.6,2.4c-1,3.7,0.9,2.3-6.4,4.7
			C42.8,93.2,39.3,94.8,38.3,93.8L38.3,93.8z M40.1,77.3c0.4,0.4,2,2.4,2.3,2.6c1,0.5,2.9-0.3,3.9-0.7l5.3-2c0.5-0.2,1-0.4,1.5-0.4
			l0.3,0.1c1.1,0.2-1.5,3.9-1.7,4.2c-0.9,1.3-1.8,1.4-4.1,2.4c-1.5,0.7-3,1.3-4.7,1.9c-1.3,0.5-1.7,0.1-2.3-0.7
			c-0.5-0.6-1.1-1.1-1.4-1.8c-0.8-0.5-4-4.3-4.7-5.1c-1.6-1.9-1.6-2.8-0.6-5.1c1.1-2.5,1.1-1.4,3.7,1.5c0.5,0.6,0.9,1,1.4,1.5
			C39.3,76.3,39.5,76.7,40.1,77.3L40.1,77.3z M43.4,77.2c-1.1-1-1-1.4-0.2-2.8c0.5-0.9,1.1-2.1,1.5-3l1.3,0.2
			c-0.2,1.2-0.4,2.2-0.5,3.4C45.3,75.9,45.2,77,43.4,77.2L43.4,77.2z M10.8,84.8C9.4,81.4,10,72.3,16.5,71c-0.2,1-0.9,2.5-1.3,3.4
			c-0.5,1.1-1,2.3-1.4,3.5c-0.5,1.3-0.9,2.2-1.4,3.5L10.8,84.8L10.8,84.8z M55.9,68.1c0.3,0.9-0.1,2.5-0.5,3.3
			c-0.8,1.5-4.9,3-6.4,4.3c-2.5,2-1.8-1.5-1.5-3.2c0.3-1.6,0.8-1.6,2.2-2.1C51.1,69.8,54.4,67.9,55.9,68.1L55.9,68.1z M42.3,68.6
			c0.9,0.7,1,1.9,0.5,3.1c-0.3,0.7-1.3,2.9-2,2.2c-0.8-0.4-4-5.2-3.9-5.6c0.4-0.7,2.2-2.5,2.7-2.7C40.4,65.9,42,67.8,42.3,68.6
			L42.3,68.6z M50.5,61.8c0.4,0.1,4,1.6,5.7,2.1c-0.3,1.4-0.4,2.1-1.9,2.2c-1.3,0.1-2.7,0.2-4,0.2c-0.9,0-3.8-0.1-4.4-0.5l-2.6-2.3
			c0.1-1,2.6-4.9,3-6.4c1,0.5,2.1,2.7,3,3.6C49.7,61.2,50.1,61.3,50.5,61.8L50.5,61.8z M32.9,59.9c1.8-0.8,2.6,1.7,1.1,2.4
			c-0.8,0.4-1.5,0.1-1.8-0.7C31.6,60.3,32.2,60.2,32.9,59.9L32.9,59.9z M31.8,55.6c1.7-0.6,2.1,1.9,0.7,2.5
			C31.3,58.6,30,56.2,31.8,55.6L31.8,55.6z M43.3,57c0.9,1.4-3.8,7.1-7.1,2c-2.7-4,1.3-7.3,3.9-7c0.1,0,0.7,0.2,0.7,0.2
			c0.6,0.3,0.2,0.1,0.4,0.4c-1.5,0.5-3,1.4-2.6,3.4c0.2,1.4,1.6,2.2,3.4,1.8C43.2,57.4,42.5,56.9,43.3,57L43.3,57z M169.5,8.7
			c2.5,2,0.8,10.3-0.1,13.1c-1.3,4.3-3.1,6.9-5.7,9.7c-8,8.8-36.9,15.9-51.4,26c-1.7,1.2-7.7,5.5-7.8,7.6c1.6-0.2,8.1-4.7,9.9-5.8
			c9.5-6.1,21.1-10.6,31.6-15.3c13.2-5.9,20.5-9,25.2-21.7c1.4-3.8,4.1-13.1,8.2-10.8c0.8,0.5,1,1.6,1,3c0,2.1-0.8,4.6-1.4,6.3
			c-4,10.7-13.1,18.2-23.2,23.7c-6.4,3.4-14.2,6.4-21.2,10.2c-3.4,1.8-6.4,3.7-9.8,5.8l-9.4,6.2c-0.9,0.7-2,1.4-3,2.2
			c-0.9,0.7-2.4,1.6-2.4,3c2.2,0.1,5.1-2,6.5-2.9c3.9-2.6,14.9-9.5,19-9.6c-0.3,3.2-4.4,7.2-6.5,8.7c-2.1,1.5-5,3-7,4.4
			c-0.6,0.5-1.7,1-1.7,2c0.9-0.1,1.9-0.6,2.8-0.7c0.6-0.4,6.8-1.8,7.7-1.5c0.8,0.2,0.2,0,0.5,0.3c-0.3,1.3-3.1,3-4.3,3.9
			c-2.8,2.1-6.7,4.7-9.7,6.7c-0.9,0.6-1.6,1.1-2.5,1.7c-0.8,0.5-1.5,1.1-1.5,2.6c2.2-0.6,9-3.4,10.4-2.4c-0.5,2.2-8.3,7.8-10.3,9
			c-4.2,2.6-8.9,4-15.4,4c0,0,0.1-0.1,0.1-0.1c0,0,0.1-0.1,0.1-0.1l0.7-0.4c2.2-1.1,5.1-2.9,5.3-5.6c-0.7-2.7-2-2.3-4-2.7l-0.9-0.2
			c0.6-0.6,1.9-0.9,2.8-1.2c2.6-1,5.9-2.7,6.5-5.8c0-1.8-0.2-2.9-1.7-3.5c-1.8-0.6-2.8,0.2-4.3,0.3c0.4-0.7,1.2-1.3,1.8-1.7
			c1.6-1.4,4.2-3.9,4.1-6.3c-0.5-1-0.5-1.3-1.4-1.9c-1.8-1.3-4.6-0.8-6.6,0c-1.1,0.4-0.7,0.4-0.9,0.3c-0.8-0.8,5.3-5.7,1.9-8.9
			c-0.2-0.1-0.3-0.3-0.5-0.4l-0.5-0.4c-0.7-0.2-1.2-0.4-2-0.5c-3-0.3-4.4,0.7-6.5,1.1c0.1-0.8,0.4-0.8,1-1.3
			c5.6-4.2,14.3-8,20.9-10.6c12.4-4.9,37.4-13.3,46.9-20.5c10.8-8.2,5-13.2,4.4-16.8C164.3,8.4,168,7.2,169.5,8.7L169.5,8.7z
			 M172.6,8c2.6-3.6,5.9-1.8,5.4,0.5c-0.7,0.5-1.4,0.5-2.3,1.1C174.9,10.2,173.3,12.8,172.6,8L172.6,8z"/>
	</g>
</g>
<path class="st2" d="M251,25.7c6-1.3,12.4-2.3,19.2-2.9c6.8-0.5,12.8-0.8,17.7-0.8c6.3,0,12.4,0.6,18.3,1.8
	c5.9,1.3,11.2,3.6,15.8,6.8c4.5,3.2,8.3,7.7,11.1,13.3c2.8,5.6,4.2,12.7,4.2,21.3c0,12.3-2.3,22.5-6.9,30.2
	c-3.2,5.3-7,9.5-11.7,12.5c-2.2,1.5-1.2,0.6-3.8,1.6l5.3,8.9l28.2,58.5h-31.7l-26.6-60.2l-11.8-2.8v63.1H251V25.7L251,25.7z
	 M278.5,95.1h9.4c6.8,0,12-2.1,15.5-6.2c3.5-4.1,5.2-10.5,5.2-19.3c0-6.6-1.5-11.9-4.3-16.1c-2.9-4.1-7.5-6.2-13.7-6.2
	c-2.4,0-4.7,0.1-6.8,0.2c-2.2,0.2-3.9,0.4-5.2,0.8V95.1L278.5,95.1z M394.3,101.8L386.7,87v89.9h-25.9V23.1h21.1l43.9,76.7l7.2,14.9
	V24.2h26V178h-21.2L394.3,101.8L394.3,101.8z M524.8,97.9H572v67.6c-5.4,5.1-11.7,8.7-18.8,11c-7.3,2.3-14.4,3.4-21.5,3.4
	c-8.6,0-16.3-1.5-23.3-4.5c-7-3.1-12.9-7.8-17.8-14.3c-4.9-6.5-8.7-14.7-11.4-24.7c-2.7-10-4-21.9-4-35.9c0-14.5,1.6-26.8,4.8-36.9
	c3.2-10,7.4-18.2,12.7-24.5c5.3-6.3,11.5-10.9,18.6-13.8c7-2.8,14.5-4.3,22.3-4.3c7,0,13.4,0.6,19.1,1.9c5.8,1.2,10.5,2.7,14.3,4.2
	L561.3,51c-3-1.4-6.3-2.4-10.1-3.3c-3.9-0.8-8.6-1.3-14.1-1.3c-5,0-9.7,1-13.8,3.1c-4.2,2-7.7,5.2-10.4,9.6
	c-2.9,4.4-5.1,10-6.6,16.9c-1.5,6.9-2.3,15.2-2.3,24.8c0,18.5,2.8,32.1,8.4,40.8c5.6,8.7,12.9,13.1,22.1,13.1c2.9,0,5.7-0.3,8.4-1.3
	c2.7-0.8,5.1-2.2,7.1-4.1V118l-25.1-3.5V97.9L524.8,97.9z M649.9,142.4h-36l-8.9,34.5h-27.2l44.2-153.8h21.6L688,176.9h-28.8
	L649.9,142.4L649.9,142.4z M619.7,119.7h25.3l-8.7-35.5l-3.5-15.7H632l-3.7,15.9L619.7,119.7L619.7,119.7z"/>
</svg>
