<?xml version="1.0" encoding="utf-8"?>
<!-- Generator: Adobe Illustrator 16.0.0, SVG Export Plug-In . SVG Version: 6.00 Build 0)  -->
<!DOCTYPE svg PUBLIC "-//W3C//DTD SVG 1.1//EN" "http://www.w3.org/Graphics/SVG/1.1/DTD/svg11.dtd">
<svg version="1.1" id="Layer_1" xmlns="http://www.w3.org/2000/svg" xmlns:xlink="http://www.w3.org/1999/xlink" x="0px" y="0px"
	 width="154px" height="134px" viewBox="0 0 154 134" enable-background="new 0 0 154 134" xml:space="preserve">
<path fill="#010101" d="M0,40.673c22.806-1.575,29.108,3.521,29.7,14.258c0.572,10.365-4.378,12.649-8.702,14.576
	c7.475,4.783,8.954,15.862,14.557,24.497H20.162c-2.011-4.177-4.292-13.658-9.798-18.88C8.166,73.04,4.671,72.512,0,73.346
	l0.093-10.969c16.682,0.564,16.047-2.726,16.025-5.917c-0.023-3.38,0-5.729-16.119-5.352V40.673L0,40.673z"/>
<polygon fill="#010101" points="38.486,40.381 50.223,40.381 67.441,60.223 84.196,40.381 96.479,40.381 96.479,94.005 
	82.881,94.005 82.881,61.991 67.441,78.826 52.191,61.527 52.191,94.005 38.486,94.005 "/>
<polygon fill="#010101" points="101.539,40.381 133.988,40.381 133.988,94.005 120.683,94.005 120.683,53.196 101.539,53.196 "/>
<polygon fill="#C9262D" points="140.796,40.381 153.604,40.381 153.604,53.19 140.796,53.19 "/>
</svg>
