<?xml version="1.0" encoding="utf-8"?>
<!-- Generator: Adobe Illustrator 22.1.0, SVG Export Plug-In . SVG Version: 6.00 Build 0)  -->
<svg version="1.1" id="Warstwa_1" xmlns="http://www.w3.org/2000/svg" xmlns:xlink="http://www.w3.org/1999/xlink" x="0px" y="0px"
	 viewBox="0 0 173.2 200" style="enable-background:new 0 0 173.2 200;" xml:space="preserve">
<style type="text/css">
	.st0{fill:#63E5BD;}
</style>
<g>
	<path class="st0" d="M65.4,63.3C52.7,70.6,44.2,84.3,44.2,100c0,23.4,19,42.4,42.4,42.4s42.4-19,42.4-42.4
		c0-15.7-8.6-29.4-21.2-36.7L86.6,100L65.4,63.3z"/>
	<path class="st0" d="M129.9,25L129.9,25l-13.4,23.3c17.9,10.3,29.9,29.6,29.9,51.7c0,32.9-26.8,59.8-59.8,59.8S26.8,132.9,26.8,100
		c0-22.1,12-41.4,29.9-51.7L43.3,25h0L0,100l43.3,75h86.6l43.3-75L129.9,25z"/>
</g>
</svg>
